<mxfile host="app.diagrams.net" modified="2023-12-09T08:26:51.619Z" agent="Mozilla/5.0 (Windows NT 10.0; Win64; x64) AppleWebKit/537.36 (KHTML, like Gecko) Chrome/120.0.0.0 Safari/537.36" etag="IrqeZyjOyICuZwra_YvQ" version="22.1.7" type="google">
  <diagram name="Page-1" id="KnXM_UrfmoAK5WGBydjY">
    <mxGraphModel grid="1" page="1" gridSize="10" guides="1" tooltips="1" connect="1" arrows="1" fold="1" pageScale="1" pageWidth="850" pageHeight="1100" math="0" shadow="0">
      <root>
        <mxCell id="0" />
        <mxCell id="1" parent="0" />
        <mxCell id="FfF9VyB2_SJo4U8Xi0ep-2" value="" style="verticalLabelPosition=bottom;verticalAlign=top;html=1;shape=mxgraph.flowchart.or;" vertex="1" parent="1">
          <mxGeometry x="-520" y="840" width="80" height="80" as="geometry" />
        </mxCell>
        <mxCell id="FfF9VyB2_SJo4U8Xi0ep-3" value="" style="verticalLabelPosition=bottom;verticalAlign=top;html=1;shape=mxgraph.flowchart.or;" vertex="1" parent="1">
          <mxGeometry x="-640" y="680" width="80" height="80" as="geometry" />
        </mxCell>
        <mxCell id="FfF9VyB2_SJo4U8Xi0ep-4" value="" style="verticalLabelPosition=bottom;verticalAlign=top;html=1;shape=mxgraph.flowchart.or;" vertex="1" parent="1">
          <mxGeometry x="-760" y="520" width="80" height="80" as="geometry" />
        </mxCell>
        <mxCell id="FfF9VyB2_SJo4U8Xi0ep-5" value="" style="verticalLabelPosition=bottom;verticalAlign=top;html=1;shape=mxgraph.flowchart.or;" vertex="1" parent="1">
          <mxGeometry x="-1000" y="520" width="80" height="80" as="geometry" />
        </mxCell>
        <mxCell id="FfF9VyB2_SJo4U8Xi0ep-6" value="" style="verticalLabelPosition=bottom;verticalAlign=top;html=1;shape=mxgraph.flowchart.or;" vertex="1" parent="1">
          <mxGeometry x="-880" y="360" width="80" height="80" as="geometry" />
        </mxCell>
        <mxCell id="FfF9VyB2_SJo4U8Xi0ep-18" value="" style="verticalLabelPosition=bottom;verticalAlign=top;html=1;shape=mxgraph.flowchart.or;" vertex="1" parent="1">
          <mxGeometry x="-760" y="840" width="80" height="80" as="geometry" />
        </mxCell>
        <mxCell id="FfF9VyB2_SJo4U8Xi0ep-19" value="" style="verticalLabelPosition=bottom;verticalAlign=top;html=1;shape=mxgraph.flowchart.or;" vertex="1" parent="1">
          <mxGeometry x="-880" y="680" width="80" height="80" as="geometry" />
        </mxCell>
        <mxCell id="FfF9VyB2_SJo4U8Xi0ep-20" value="" style="endArrow=none;html=1;rounded=0;entryX=0.5;entryY=0;entryDx=0;entryDy=0;entryPerimeter=0;edgeStyle=orthogonalEdgeStyle;exitX=0.5;exitY=1;exitDx=0;exitDy=0;exitPerimeter=0;" edge="1" parent="1" source="FfF9VyB2_SJo4U8Xi0ep-6" target="FfF9VyB2_SJo4U8Xi0ep-4">
          <mxGeometry width="50" height="50" relative="1" as="geometry">
            <mxPoint x="-750" y="440" as="sourcePoint" />
            <mxPoint x="-490" y="570" as="targetPoint" />
          </mxGeometry>
        </mxCell>
        <mxCell id="FfF9VyB2_SJo4U8Xi0ep-121" value="Khảo sát các chức năng cần thiết cho phần mềm = 3.5d" style="edgeLabel;html=1;align=center;verticalAlign=middle;resizable=0;points=[];" vertex="1" connectable="0" parent="FfF9VyB2_SJo4U8Xi0ep-20">
          <mxGeometry x="0.7992" y="2" relative="1" as="geometry">
            <mxPoint as="offset" />
          </mxGeometry>
        </mxCell>
        <mxCell id="FfF9VyB2_SJo4U8Xi0ep-21" value="" style="endArrow=none;html=1;rounded=0;exitX=0.5;exitY=0;exitDx=0;exitDy=0;exitPerimeter=0;edgeStyle=orthogonalEdgeStyle;entryX=0.5;entryY=1;entryDx=0;entryDy=0;entryPerimeter=0;" edge="1" parent="1" source="FfF9VyB2_SJo4U8Xi0ep-5" target="FfF9VyB2_SJo4U8Xi0ep-6">
          <mxGeometry width="50" height="50" relative="1" as="geometry">
            <mxPoint x="-530" y="630" as="sourcePoint" />
            <mxPoint x="-920" y="450" as="targetPoint" />
          </mxGeometry>
        </mxCell>
        <mxCell id="FfF9VyB2_SJo4U8Xi0ep-117" value="Khảo sát nghiệp vụ cụ thể = 3.5d" style="edgeLabel;html=1;align=center;verticalAlign=middle;resizable=0;points=[];" vertex="1" connectable="0" parent="FfF9VyB2_SJo4U8Xi0ep-21">
          <mxGeometry x="-0.8146" y="-2" relative="1" as="geometry">
            <mxPoint as="offset" />
          </mxGeometry>
        </mxCell>
        <mxCell id="FfF9VyB2_SJo4U8Xi0ep-23" value="" style="endArrow=none;html=1;rounded=0;exitX=0.5;exitY=1;exitDx=0;exitDy=0;exitPerimeter=0;entryX=0.5;entryY=0;entryDx=0;entryDy=0;entryPerimeter=0;edgeStyle=orthogonalEdgeStyle;" edge="1" parent="1" source="FfF9VyB2_SJo4U8Xi0ep-5" target="FfF9VyB2_SJo4U8Xi0ep-19">
          <mxGeometry width="50" height="50" relative="1" as="geometry">
            <mxPoint x="-660" y="720" as="sourcePoint" />
            <mxPoint x="-610" y="670" as="targetPoint" />
          </mxGeometry>
        </mxCell>
        <mxCell id="FfF9VyB2_SJo4U8Xi0ep-24" value="" style="endArrow=none;html=1;rounded=0;exitX=0.5;exitY=0;exitDx=0;exitDy=0;exitPerimeter=0;entryX=0.5;entryY=1;entryDx=0;entryDy=0;entryPerimeter=0;edgeStyle=orthogonalEdgeStyle;" edge="1" parent="1" source="FfF9VyB2_SJo4U8Xi0ep-19" target="FfF9VyB2_SJo4U8Xi0ep-4">
          <mxGeometry width="50" height="50" relative="1" as="geometry">
            <mxPoint x="-660" y="720" as="sourcePoint" />
            <mxPoint x="-610" y="670" as="targetPoint" />
          </mxGeometry>
        </mxCell>
        <mxCell id="FfF9VyB2_SJo4U8Xi0ep-123" value="Xác định các nhu cầu của khách hàng = 5d" style="edgeLabel;html=1;align=center;verticalAlign=middle;resizable=0;points=[];" vertex="1" connectable="0" parent="FfF9VyB2_SJo4U8Xi0ep-24">
          <mxGeometry x="-0.7531" y="1" relative="1" as="geometry">
            <mxPoint y="5" as="offset" />
          </mxGeometry>
        </mxCell>
        <mxCell id="FfF9VyB2_SJo4U8Xi0ep-25" value="" style="endArrow=none;html=1;rounded=0;exitX=1;exitY=0.5;exitDx=0;exitDy=0;exitPerimeter=0;entryX=0;entryY=0.5;entryDx=0;entryDy=0;entryPerimeter=0;" edge="1" parent="1" source="FfF9VyB2_SJo4U8Xi0ep-19" target="FfF9VyB2_SJo4U8Xi0ep-3">
          <mxGeometry width="50" height="50" relative="1" as="geometry">
            <mxPoint x="-420" y="560" as="sourcePoint" />
            <mxPoint x="-370" y="510" as="targetPoint" />
            <Array as="points" />
          </mxGeometry>
        </mxCell>
        <mxCell id="FfF9VyB2_SJo4U8Xi0ep-125" value="Thiết kế Database = 2.25d" style="edgeLabel;html=1;align=center;verticalAlign=middle;resizable=0;points=[];" vertex="1" connectable="0" parent="FfF9VyB2_SJo4U8Xi0ep-25">
          <mxGeometry x="0.0047" y="-1" relative="1" as="geometry">
            <mxPoint as="offset" />
          </mxGeometry>
        </mxCell>
        <mxCell id="FfF9VyB2_SJo4U8Xi0ep-26" value="" style="endArrow=none;html=1;rounded=0;exitX=0.5;exitY=0;exitDx=0;exitDy=0;exitPerimeter=0;entryX=0.5;entryY=1;entryDx=0;entryDy=0;entryPerimeter=0;edgeStyle=orthogonalEdgeStyle;" edge="1" parent="1" source="FfF9VyB2_SJo4U8Xi0ep-18" target="FfF9VyB2_SJo4U8Xi0ep-3">
          <mxGeometry width="50" height="50" relative="1" as="geometry">
            <mxPoint x="-420" y="940" as="sourcePoint" />
            <mxPoint x="-370" y="890" as="targetPoint" />
          </mxGeometry>
        </mxCell>
        <mxCell id="FfF9VyB2_SJo4U8Xi0ep-126" value="Thiết kế HTML cho Product, &lt;br&gt;Cart, Home, ProductDetail = 2d" style="edgeLabel;html=1;align=center;verticalAlign=middle;resizable=0;points=[];" vertex="1" connectable="0" parent="FfF9VyB2_SJo4U8Xi0ep-26">
          <mxGeometry x="-0.8223" y="2" relative="1" as="geometry">
            <mxPoint as="offset" />
          </mxGeometry>
        </mxCell>
        <mxCell id="FfF9VyB2_SJo4U8Xi0ep-27" value="" style="endArrow=none;html=1;rounded=0;exitX=0.5;exitY=0;exitDx=0;exitDy=0;exitPerimeter=0;entryX=0.5;entryY=1;entryDx=0;entryDy=0;entryPerimeter=0;edgeStyle=orthogonalEdgeStyle;" edge="1" parent="1" source="FfF9VyB2_SJo4U8Xi0ep-2" target="FfF9VyB2_SJo4U8Xi0ep-3">
          <mxGeometry width="50" height="50" relative="1" as="geometry">
            <mxPoint x="-710" y="850" as="sourcePoint" />
            <mxPoint x="-590" y="770" as="targetPoint" />
          </mxGeometry>
        </mxCell>
        <mxCell id="FfF9VyB2_SJo4U8Xi0ep-127" value="Thiết kế HTML cho Admin, &lt;br&gt;Payment, Login/Register = 2d" style="edgeLabel;html=1;align=center;verticalAlign=middle;resizable=0;points=[];" vertex="1" connectable="0" parent="FfF9VyB2_SJo4U8Xi0ep-27">
          <mxGeometry x="-0.8314" relative="1" as="geometry">
            <mxPoint y="-3" as="offset" />
          </mxGeometry>
        </mxCell>
        <mxCell id="FfF9VyB2_SJo4U8Xi0ep-29" value="" style="verticalLabelPosition=bottom;verticalAlign=top;html=1;shape=mxgraph.flowchart.or;" vertex="1" parent="1">
          <mxGeometry x="-520" y="1000" width="80" height="80" as="geometry" />
        </mxCell>
        <mxCell id="FfF9VyB2_SJo4U8Xi0ep-31" value="" style="verticalLabelPosition=bottom;verticalAlign=top;html=1;shape=mxgraph.flowchart.or;" vertex="1" parent="1">
          <mxGeometry x="-760" y="1000" width="80" height="80" as="geometry" />
        </mxCell>
        <mxCell id="FfF9VyB2_SJo4U8Xi0ep-32" value="" style="verticalLabelPosition=bottom;verticalAlign=top;html=1;shape=mxgraph.flowchart.or;" vertex="1" parent="1">
          <mxGeometry x="-760" y="1160" width="80" height="80" as="geometry" />
        </mxCell>
        <mxCell id="FfF9VyB2_SJo4U8Xi0ep-33" value="" style="verticalLabelPosition=bottom;verticalAlign=top;html=1;shape=mxgraph.flowchart.or;" vertex="1" parent="1">
          <mxGeometry x="-520" y="1160" width="80" height="80" as="geometry" />
        </mxCell>
        <mxCell id="FfF9VyB2_SJo4U8Xi0ep-34" value="" style="verticalLabelPosition=bottom;verticalAlign=top;html=1;shape=mxgraph.flowchart.or;" vertex="1" parent="1">
          <mxGeometry x="-640" y="1320" width="80" height="80" as="geometry" />
        </mxCell>
        <mxCell id="FfF9VyB2_SJo4U8Xi0ep-35" value="" style="verticalLabelPosition=bottom;verticalAlign=top;html=1;shape=mxgraph.flowchart.or;" vertex="1" parent="1">
          <mxGeometry x="-920" y="1320" width="80" height="80" as="geometry" />
        </mxCell>
        <mxCell id="FfF9VyB2_SJo4U8Xi0ep-36" value="" style="verticalLabelPosition=bottom;verticalAlign=top;html=1;shape=mxgraph.flowchart.or;" vertex="1" parent="1">
          <mxGeometry x="-920" y="1480" width="80" height="80" as="geometry" />
        </mxCell>
        <mxCell id="FfF9VyB2_SJo4U8Xi0ep-37" value="" style="verticalLabelPosition=bottom;verticalAlign=top;html=1;shape=mxgraph.flowchart.or;" vertex="1" parent="1">
          <mxGeometry x="-1080" y="1480" width="80" height="80" as="geometry" />
        </mxCell>
        <mxCell id="FfF9VyB2_SJo4U8Xi0ep-38" value="" style="verticalLabelPosition=bottom;verticalAlign=top;html=1;shape=mxgraph.flowchart.or;" vertex="1" parent="1">
          <mxGeometry x="-760" y="1480" width="80" height="80" as="geometry" />
        </mxCell>
        <mxCell id="FfF9VyB2_SJo4U8Xi0ep-39" value="" style="verticalLabelPosition=bottom;verticalAlign=top;html=1;shape=mxgraph.flowchart.or;" vertex="1" parent="1">
          <mxGeometry x="-680" y="1720" width="80" height="81" as="geometry" />
        </mxCell>
        <mxCell id="FfF9VyB2_SJo4U8Xi0ep-40" value="" style="verticalLabelPosition=bottom;verticalAlign=top;html=1;shape=mxgraph.flowchart.or;" vertex="1" parent="1">
          <mxGeometry x="-1000" y="1720" width="80" height="81" as="geometry" />
        </mxCell>
        <mxCell id="FfF9VyB2_SJo4U8Xi0ep-41" value="" style="verticalLabelPosition=bottom;verticalAlign=top;html=1;shape=mxgraph.flowchart.or;" vertex="1" parent="1">
          <mxGeometry x="-1120" y="1720" width="80" height="81" as="geometry" />
        </mxCell>
        <mxCell id="FfF9VyB2_SJo4U8Xi0ep-42" value="" style="verticalLabelPosition=bottom;verticalAlign=top;html=1;shape=mxgraph.flowchart.or;" vertex="1" parent="1">
          <mxGeometry x="-1120" y="1960" width="80" height="81" as="geometry" />
        </mxCell>
        <mxCell id="FfF9VyB2_SJo4U8Xi0ep-87" value="" style="edgeStyle=orthogonalEdgeStyle;rounded=0;orthogonalLoop=1;jettySize=auto;html=1;entryX=0;entryY=0.5;entryDx=0;entryDy=0;entryPerimeter=0;strokeColor=default;endArrow=none;endFill=0;" edge="1" parent="1" source="FfF9VyB2_SJo4U8Xi0ep-46" target="FfF9VyB2_SJo4U8Xi0ep-50">
          <mxGeometry relative="1" as="geometry">
            <mxPoint x="-830" y="2001" as="targetPoint" />
          </mxGeometry>
        </mxCell>
        <mxCell id="FfF9VyB2_SJo4U8Xi0ep-143" value="Thiết kế logic phân quyền giữa&lt;br&gt;&amp;nbsp;User và Admin =3d" style="edgeLabel;html=1;align=center;verticalAlign=middle;resizable=0;points=[];" vertex="1" connectable="0" parent="FfF9VyB2_SJo4U8Xi0ep-87">
          <mxGeometry x="-0.022" y="-2" relative="1" as="geometry">
            <mxPoint as="offset" />
          </mxGeometry>
        </mxCell>
        <mxCell id="FfF9VyB2_SJo4U8Xi0ep-46" value="" style="verticalLabelPosition=bottom;verticalAlign=top;html=1;shape=mxgraph.flowchart.or;" vertex="1" parent="1">
          <mxGeometry x="-880" y="1961" width="80" height="80" as="geometry" />
        </mxCell>
        <mxCell id="FfF9VyB2_SJo4U8Xi0ep-47" value="" style="verticalLabelPosition=bottom;verticalAlign=top;html=1;shape=mxgraph.flowchart.or;" vertex="1" parent="1">
          <mxGeometry x="-200" y="1960" width="80" height="80" as="geometry" />
        </mxCell>
        <mxCell id="FfF9VyB2_SJo4U8Xi0ep-49" value="" style="verticalLabelPosition=bottom;verticalAlign=top;html=1;shape=mxgraph.flowchart.or;" vertex="1" parent="1">
          <mxGeometry x="-400" y="1960" width="80" height="80" as="geometry" />
        </mxCell>
        <mxCell id="FfF9VyB2_SJo4U8Xi0ep-50" value="" style="verticalLabelPosition=bottom;verticalAlign=top;html=1;shape=mxgraph.flowchart.or;" vertex="1" parent="1">
          <mxGeometry x="-600" y="1960.5" width="80" height="80" as="geometry" />
        </mxCell>
        <mxCell id="FfF9VyB2_SJo4U8Xi0ep-51" value="" style="endArrow=none;html=1;rounded=0;exitX=0.5;exitY=0;exitDx=0;exitDy=0;exitPerimeter=0;entryX=0.5;entryY=1;entryDx=0;entryDy=0;entryPerimeter=0;" edge="1" parent="1" source="FfF9VyB2_SJo4U8Xi0ep-29" target="FfF9VyB2_SJo4U8Xi0ep-2">
          <mxGeometry width="50" height="50" relative="1" as="geometry">
            <mxPoint x="-820" y="1050" as="sourcePoint" />
            <mxPoint x="-770" y="1000" as="targetPoint" />
          </mxGeometry>
        </mxCell>
        <mxCell id="FfF9VyB2_SJo4U8Xi0ep-129" value="Thiết kế CSS cho Admin, &lt;br&gt;Payment, Login/Register = 2d" style="edgeLabel;html=1;align=center;verticalAlign=middle;resizable=0;points=[];" vertex="1" connectable="0" parent="FfF9VyB2_SJo4U8Xi0ep-51">
          <mxGeometry x="-0.0026" y="-1" relative="1" as="geometry">
            <mxPoint as="offset" />
          </mxGeometry>
        </mxCell>
        <mxCell id="FfF9VyB2_SJo4U8Xi0ep-53" value="" style="endArrow=none;html=1;rounded=0;entryX=0.5;entryY=1;entryDx=0;entryDy=0;entryPerimeter=0;exitX=0.5;exitY=0;exitDx=0;exitDy=0;exitPerimeter=0;" edge="1" parent="1" source="FfF9VyB2_SJo4U8Xi0ep-31" target="FfF9VyB2_SJo4U8Xi0ep-18">
          <mxGeometry width="50" height="50" relative="1" as="geometry">
            <mxPoint x="-810" y="1060" as="sourcePoint" />
            <mxPoint x="-760" y="1010" as="targetPoint" />
          </mxGeometry>
        </mxCell>
        <mxCell id="FfF9VyB2_SJo4U8Xi0ep-128" value="Thiết kế CSS cho Product, &lt;br&gt;Cart, Home, ProductDetail&amp;nbsp; = 2 d" style="edgeLabel;html=1;align=center;verticalAlign=middle;resizable=0;points=[];" vertex="1" connectable="0" parent="FfF9VyB2_SJo4U8Xi0ep-53">
          <mxGeometry x="0.0147" relative="1" as="geometry">
            <mxPoint as="offset" />
          </mxGeometry>
        </mxCell>
        <mxCell id="FfF9VyB2_SJo4U8Xi0ep-55" value="" style="endArrow=none;html=1;rounded=0;entryX=0.5;entryY=1;entryDx=0;entryDy=0;entryPerimeter=0;exitX=0.5;exitY=0;exitDx=0;exitDy=0;exitPerimeter=0;" edge="1" parent="1" source="FfF9VyB2_SJo4U8Xi0ep-32" target="FfF9VyB2_SJo4U8Xi0ep-31">
          <mxGeometry width="50" height="50" relative="1" as="geometry">
            <mxPoint x="-1060" y="1075" as="sourcePoint" />
            <mxPoint x="-1010" y="1025" as="targetPoint" />
          </mxGeometry>
        </mxCell>
        <mxCell id="FfF9VyB2_SJo4U8Xi0ep-130" value="Bắt Event cho Product, &lt;br&gt;Cart, Home, ProductDetail = 2.4d" style="edgeLabel;html=1;align=center;verticalAlign=middle;resizable=0;points=[];" vertex="1" connectable="0" parent="FfF9VyB2_SJo4U8Xi0ep-55">
          <mxGeometry x="-0.0336" relative="1" as="geometry">
            <mxPoint as="offset" />
          </mxGeometry>
        </mxCell>
        <mxCell id="FfF9VyB2_SJo4U8Xi0ep-56" value="" style="endArrow=none;html=1;rounded=0;exitX=0.5;exitY=0;exitDx=0;exitDy=0;exitPerimeter=0;entryX=0.5;entryY=1;entryDx=0;entryDy=0;entryPerimeter=0;" edge="1" parent="1" source="FfF9VyB2_SJo4U8Xi0ep-33" target="FfF9VyB2_SJo4U8Xi0ep-29">
          <mxGeometry width="50" height="50" relative="1" as="geometry">
            <mxPoint x="-1050" y="1085" as="sourcePoint" />
            <mxPoint x="-1000" y="1035" as="targetPoint" />
          </mxGeometry>
        </mxCell>
        <mxCell id="FfF9VyB2_SJo4U8Xi0ep-131" value="Bắt Event cho Admin, &lt;br&gt;Payment, Login/Register = 2.4d" style="edgeLabel;html=1;align=center;verticalAlign=middle;resizable=0;points=[];" vertex="1" connectable="0" parent="FfF9VyB2_SJo4U8Xi0ep-56">
          <mxGeometry x="-0.0336" relative="1" as="geometry">
            <mxPoint as="offset" />
          </mxGeometry>
        </mxCell>
        <mxCell id="FfF9VyB2_SJo4U8Xi0ep-58" value="" style="endArrow=none;html=1;rounded=0;exitX=0.5;exitY=0;exitDx=0;exitDy=0;exitPerimeter=0;entryX=0.5;entryY=1;entryDx=0;entryDy=0;entryPerimeter=0;edgeStyle=orthogonalEdgeStyle;" edge="1" parent="1" source="FfF9VyB2_SJo4U8Xi0ep-34" target="FfF9VyB2_SJo4U8Xi0ep-33">
          <mxGeometry width="50" height="50" relative="1" as="geometry">
            <mxPoint x="-1060" y="1075" as="sourcePoint" />
            <mxPoint x="-1010" y="1025" as="targetPoint" />
          </mxGeometry>
        </mxCell>
        <mxCell id="FfF9VyB2_SJo4U8Xi0ep-59" value="" style="endArrow=none;html=1;rounded=0;exitX=0.5;exitY=0;exitDx=0;exitDy=0;exitPerimeter=0;entryX=0.5;entryY=1;entryDx=0;entryDy=0;entryPerimeter=0;edgeStyle=orthogonalEdgeStyle;" edge="1" parent="1" source="FfF9VyB2_SJo4U8Xi0ep-34" target="FfF9VyB2_SJo4U8Xi0ep-32">
          <mxGeometry width="50" height="50" relative="1" as="geometry">
            <mxPoint x="-1050" y="1085" as="sourcePoint" />
            <mxPoint x="-720" y="1270" as="targetPoint" />
          </mxGeometry>
        </mxCell>
        <mxCell id="FfF9VyB2_SJo4U8Xi0ep-132" value="Tạo dự án Spring web = 3d" style="edgeLabel;html=1;align=center;verticalAlign=middle;resizable=0;points=[];" vertex="1" connectable="0" parent="FfF9VyB2_SJo4U8Xi0ep-59">
          <mxGeometry x="-0.7831" relative="1" as="geometry">
            <mxPoint as="offset" />
          </mxGeometry>
        </mxCell>
        <mxCell id="FfF9VyB2_SJo4U8Xi0ep-60" value="" style="endArrow=none;html=1;rounded=0;exitX=1;exitY=0.5;exitDx=0;exitDy=0;exitPerimeter=0;entryX=0;entryY=0.5;entryDx=0;entryDy=0;entryPerimeter=0;" edge="1" parent="1" source="FfF9VyB2_SJo4U8Xi0ep-35" target="FfF9VyB2_SJo4U8Xi0ep-34">
          <mxGeometry width="50" height="50" relative="1" as="geometry">
            <mxPoint x="-1040" y="1095" as="sourcePoint" />
            <mxPoint x="-990" y="1045" as="targetPoint" />
          </mxGeometry>
        </mxCell>
        <mxCell id="FfF9VyB2_SJo4U8Xi0ep-133" value="Import các thư viện cấu hình = 4d" style="edgeLabel;html=1;align=center;verticalAlign=middle;resizable=0;points=[];" vertex="1" connectable="0" parent="FfF9VyB2_SJo4U8Xi0ep-60">
          <mxGeometry x="0.0366" y="-2" relative="1" as="geometry">
            <mxPoint x="-3" y="-2" as="offset" />
          </mxGeometry>
        </mxCell>
        <mxCell id="FfF9VyB2_SJo4U8Xi0ep-61" value="" style="endArrow=none;html=1;rounded=0;exitX=0.5;exitY=0;exitDx=0;exitDy=0;exitPerimeter=0;entryX=0.5;entryY=1;entryDx=0;entryDy=0;entryPerimeter=0;edgeStyle=orthogonalEdgeStyle;" edge="1" parent="1" source="FfF9VyB2_SJo4U8Xi0ep-38" target="FfF9VyB2_SJo4U8Xi0ep-35">
          <mxGeometry width="50" height="50" relative="1" as="geometry">
            <mxPoint x="-1030" y="1105" as="sourcePoint" />
            <mxPoint x="-980" y="1055" as="targetPoint" />
          </mxGeometry>
        </mxCell>
        <mxCell id="FfF9VyB2_SJo4U8Xi0ep-136" value="Các thư mục View, ResourceStatic = 2.1d" style="edgeLabel;html=1;align=center;verticalAlign=middle;resizable=0;points=[];" vertex="1" connectable="0" parent="FfF9VyB2_SJo4U8Xi0ep-61">
          <mxGeometry x="-0.8486" y="2" relative="1" as="geometry">
            <mxPoint as="offset" />
          </mxGeometry>
        </mxCell>
        <mxCell id="FfF9VyB2_SJo4U8Xi0ep-62" value="" style="endArrow=none;html=1;rounded=0;entryX=0.5;entryY=1;entryDx=0;entryDy=0;entryPerimeter=0;exitX=0.5;exitY=0;exitDx=0;exitDy=0;exitPerimeter=0;" edge="1" parent="1" source="FfF9VyB2_SJo4U8Xi0ep-36" target="FfF9VyB2_SJo4U8Xi0ep-35">
          <mxGeometry width="50" height="50" relative="1" as="geometry">
            <mxPoint x="-860" y="1470" as="sourcePoint" />
            <mxPoint x="-970" y="1065" as="targetPoint" />
          </mxGeometry>
        </mxCell>
        <mxCell id="FfF9VyB2_SJo4U8Xi0ep-135" value="Các lớp Model = 2.3d" style="edgeLabel;html=1;align=center;verticalAlign=middle;resizable=0;points=[];" vertex="1" connectable="0" parent="FfF9VyB2_SJo4U8Xi0ep-62">
          <mxGeometry x="-0.5708" y="-3" relative="1" as="geometry">
            <mxPoint as="offset" />
          </mxGeometry>
        </mxCell>
        <mxCell id="FfF9VyB2_SJo4U8Xi0ep-63" value="" style="endArrow=none;html=1;rounded=0;exitX=0.5;exitY=0;exitDx=0;exitDy=0;exitPerimeter=0;entryX=0.5;entryY=1;entryDx=0;entryDy=0;entryPerimeter=0;edgeStyle=orthogonalEdgeStyle;" edge="1" parent="1" source="FfF9VyB2_SJo4U8Xi0ep-37" target="FfF9VyB2_SJo4U8Xi0ep-35">
          <mxGeometry width="50" height="50" relative="1" as="geometry">
            <mxPoint x="-1010" y="1125" as="sourcePoint" />
            <mxPoint x="-960" y="1075" as="targetPoint" />
          </mxGeometry>
        </mxCell>
        <mxCell id="FfF9VyB2_SJo4U8Xi0ep-134" value="Các lớp Controller = 2.6d" style="edgeLabel;html=1;align=center;verticalAlign=middle;resizable=0;points=[];" vertex="1" connectable="0" parent="FfF9VyB2_SJo4U8Xi0ep-63">
          <mxGeometry x="0.8069" relative="1" as="geometry">
            <mxPoint x="-150" y="37" as="offset" />
          </mxGeometry>
        </mxCell>
        <mxCell id="FfF9VyB2_SJo4U8Xi0ep-65" value="" style="endArrow=none;html=1;rounded=0;" edge="1" parent="1">
          <mxGeometry width="50" height="50" relative="1" as="geometry">
            <mxPoint x="-1080" y="1640" as="sourcePoint" />
            <mxPoint x="-640" y="1640" as="targetPoint" />
            <Array as="points">
              <mxPoint x="-880" y="1640" />
            </Array>
          </mxGeometry>
        </mxCell>
        <mxCell id="FfF9VyB2_SJo4U8Xi0ep-66" value="" style="endArrow=none;html=1;rounded=0;exitX=0.5;exitY=1;exitDx=0;exitDy=0;exitPerimeter=0;edgeStyle=orthogonalEdgeStyle;" edge="1" parent="1" source="FfF9VyB2_SJo4U8Xi0ep-38">
          <mxGeometry width="50" height="50" relative="1" as="geometry">
            <mxPoint x="-990" y="1150" as="sourcePoint" />
            <mxPoint x="-850" y="1640" as="targetPoint" />
            <Array as="points">
              <mxPoint x="-720" y="1600" />
              <mxPoint x="-880" y="1600" />
              <mxPoint x="-880" y="1640" />
            </Array>
          </mxGeometry>
        </mxCell>
        <mxCell id="FfF9VyB2_SJo4U8Xi0ep-67" value="" style="endArrow=none;html=1;rounded=0;exitX=0.5;exitY=1;exitDx=0;exitDy=0;exitPerimeter=0;" edge="1" parent="1" source="FfF9VyB2_SJo4U8Xi0ep-36">
          <mxGeometry width="50" height="50" relative="1" as="geometry">
            <mxPoint x="-980" y="1155" as="sourcePoint" />
            <mxPoint x="-880" y="1640" as="targetPoint" />
          </mxGeometry>
        </mxCell>
        <mxCell id="FfF9VyB2_SJo4U8Xi0ep-69" value="" style="endArrow=none;html=1;rounded=0;entryX=0.5;entryY=1;entryDx=0;entryDy=0;entryPerimeter=0;edgeStyle=orthogonalEdgeStyle;" edge="1" parent="1" target="FfF9VyB2_SJo4U8Xi0ep-37">
          <mxGeometry width="50" height="50" relative="1" as="geometry">
            <mxPoint x="-880" y="1640" as="sourcePoint" />
            <mxPoint x="-910" y="1125" as="targetPoint" />
            <Array as="points">
              <mxPoint x="-880" y="1600" />
              <mxPoint x="-1039" y="1600" />
              <mxPoint x="-1039" y="1560" />
            </Array>
          </mxGeometry>
        </mxCell>
        <mxCell id="FfF9VyB2_SJo4U8Xi0ep-71" value="" style="verticalLabelPosition=bottom;verticalAlign=top;html=1;shape=mxgraph.flowchart.or;" vertex="1" parent="1">
          <mxGeometry x="-840" y="1720" width="80" height="81" as="geometry" />
        </mxCell>
        <mxCell id="FfF9VyB2_SJo4U8Xi0ep-72" value="" style="endArrow=none;html=1;rounded=0;exitX=0.5;exitY=0;exitDx=0;exitDy=0;exitPerimeter=0;" edge="1" parent="1" source="FfF9VyB2_SJo4U8Xi0ep-41">
          <mxGeometry width="50" height="50" relative="1" as="geometry">
            <mxPoint x="-1075" y="1720" as="sourcePoint" />
            <mxPoint x="-1080" y="1640" as="targetPoint" />
          </mxGeometry>
        </mxCell>
        <mxCell id="FfF9VyB2_SJo4U8Xi0ep-140" value="Package , lớp Service = 6d" style="edgeLabel;html=1;align=center;verticalAlign=middle;resizable=0;points=[];" vertex="1" connectable="0" parent="FfF9VyB2_SJo4U8Xi0ep-72">
          <mxGeometry x="-0.0667" relative="1" as="geometry">
            <mxPoint y="-12" as="offset" />
          </mxGeometry>
        </mxCell>
        <mxCell id="FfF9VyB2_SJo4U8Xi0ep-73" value="" style="endArrow=none;html=1;rounded=0;exitX=0.5;exitY=0;exitDx=0;exitDy=0;exitPerimeter=0;" edge="1" parent="1" source="FfF9VyB2_SJo4U8Xi0ep-39">
          <mxGeometry width="50" height="50" relative="1" as="geometry">
            <mxPoint x="-590" y="1700" as="sourcePoint" />
            <mxPoint x="-640" y="1640" as="targetPoint" />
          </mxGeometry>
        </mxCell>
        <mxCell id="FfF9VyB2_SJo4U8Xi0ep-137" value="Package , lớp Config = 3d" style="edgeLabel;html=1;align=center;verticalAlign=middle;resizable=0;points=[];" vertex="1" connectable="0" parent="FfF9VyB2_SJo4U8Xi0ep-73">
          <mxGeometry x="-0.0833" y="1" relative="1" as="geometry">
            <mxPoint as="offset" />
          </mxGeometry>
        </mxCell>
        <mxCell id="FfF9VyB2_SJo4U8Xi0ep-74" value="" style="endArrow=none;html=1;rounded=0;exitX=0.5;exitY=0;exitDx=0;exitDy=0;exitPerimeter=0;" edge="1" parent="1" source="FfF9VyB2_SJo4U8Xi0ep-71">
          <mxGeometry width="50" height="50" relative="1" as="geometry">
            <mxPoint x="-800" y="1710" as="sourcePoint" />
            <mxPoint x="-800" y="1640" as="targetPoint" />
          </mxGeometry>
        </mxCell>
        <mxCell id="FfF9VyB2_SJo4U8Xi0ep-138" value="Package , lớp DTO = 7d" style="edgeLabel;html=1;align=center;verticalAlign=middle;resizable=0;points=[];" vertex="1" connectable="0" parent="FfF9VyB2_SJo4U8Xi0ep-74">
          <mxGeometry x="-0.1375" relative="1" as="geometry">
            <mxPoint as="offset" />
          </mxGeometry>
        </mxCell>
        <mxCell id="FfF9VyB2_SJo4U8Xi0ep-75" value="" style="endArrow=none;html=1;rounded=0;exitX=0.5;exitY=0;exitDx=0;exitDy=0;exitPerimeter=0;" edge="1" parent="1" source="FfF9VyB2_SJo4U8Xi0ep-40">
          <mxGeometry width="50" height="50" relative="1" as="geometry">
            <mxPoint x="-900" y="1840" as="sourcePoint" />
            <mxPoint x="-960" y="1640" as="targetPoint" />
          </mxGeometry>
        </mxCell>
        <mxCell id="FfF9VyB2_SJo4U8Xi0ep-139" value="Package , lớp DAO = 7d" style="edgeLabel;html=1;align=center;verticalAlign=middle;resizable=0;points=[];" vertex="1" connectable="0" parent="FfF9VyB2_SJo4U8Xi0ep-75">
          <mxGeometry x="-0.2375" relative="1" as="geometry">
            <mxPoint y="11" as="offset" />
          </mxGeometry>
        </mxCell>
        <mxCell id="FfF9VyB2_SJo4U8Xi0ep-77" value="" style="endArrow=none;html=1;rounded=0;entryX=0.5;entryY=1;entryDx=0;entryDy=0;entryPerimeter=0;" edge="1" parent="1" target="FfF9VyB2_SJo4U8Xi0ep-39">
          <mxGeometry width="50" height="50" relative="1" as="geometry">
            <mxPoint x="-640" y="1880" as="sourcePoint" />
            <mxPoint x="-620" y="1830" as="targetPoint" />
          </mxGeometry>
        </mxCell>
        <mxCell id="FfF9VyB2_SJo4U8Xi0ep-78" value="" style="endArrow=none;html=1;rounded=0;entryX=0.5;entryY=1;entryDx=0;entryDy=0;entryPerimeter=0;" edge="1" parent="1" target="FfF9VyB2_SJo4U8Xi0ep-71">
          <mxGeometry width="50" height="50" relative="1" as="geometry">
            <mxPoint x="-800" y="1880" as="sourcePoint" />
            <mxPoint x="-680" y="1870" as="targetPoint" />
          </mxGeometry>
        </mxCell>
        <mxCell id="FfF9VyB2_SJo4U8Xi0ep-79" value="" style="endArrow=none;html=1;rounded=0;entryX=0.5;entryY=1;entryDx=0;entryDy=0;entryPerimeter=0;" edge="1" parent="1" target="FfF9VyB2_SJo4U8Xi0ep-40">
          <mxGeometry width="50" height="50" relative="1" as="geometry">
            <mxPoint x="-960" y="1880" as="sourcePoint" />
            <mxPoint x="-910" y="1860" as="targetPoint" />
          </mxGeometry>
        </mxCell>
        <mxCell id="FfF9VyB2_SJo4U8Xi0ep-80" value="" style="endArrow=none;html=1;rounded=0;entryX=0.5;entryY=1;entryDx=0;entryDy=0;entryPerimeter=0;exitX=0.5;exitY=0;exitDx=0;exitDy=0;exitPerimeter=0;" edge="1" parent="1" source="FfF9VyB2_SJo4U8Xi0ep-42" target="FfF9VyB2_SJo4U8Xi0ep-41">
          <mxGeometry width="50" height="50" relative="1" as="geometry">
            <mxPoint x="-1080" y="1880" as="sourcePoint" />
            <mxPoint x="-1080" y="1870" as="targetPoint" />
          </mxGeometry>
        </mxCell>
        <mxCell id="FfF9VyB2_SJo4U8Xi0ep-141" value="Import thư viện Spring Security và các Class ConfigSecurity = 2d" style="edgeLabel;html=1;align=center;verticalAlign=middle;resizable=0;points=[];" vertex="1" connectable="0" parent="FfF9VyB2_SJo4U8Xi0ep-80">
          <mxGeometry x="-0.4759" y="-3" relative="1" as="geometry">
            <mxPoint as="offset" />
          </mxGeometry>
        </mxCell>
        <mxCell id="FfF9VyB2_SJo4U8Xi0ep-85" value="" style="endArrow=none;html=1;rounded=0;" edge="1" parent="1">
          <mxGeometry width="50" height="50" relative="1" as="geometry">
            <mxPoint x="-1080" y="1880" as="sourcePoint" />
            <mxPoint x="-640" y="1880" as="targetPoint" />
          </mxGeometry>
        </mxCell>
        <mxCell id="FfF9VyB2_SJo4U8Xi0ep-86" value="" style="endArrow=none;html=1;rounded=0;exitX=1;exitY=0.5;exitDx=0;exitDy=0;exitPerimeter=0;entryX=0;entryY=0.5;entryDx=0;entryDy=0;entryPerimeter=0;" edge="1" parent="1" source="FfF9VyB2_SJo4U8Xi0ep-42" target="FfF9VyB2_SJo4U8Xi0ep-46">
          <mxGeometry width="50" height="50" relative="1" as="geometry">
            <mxPoint x="-520" y="2390" as="sourcePoint" />
            <mxPoint x="-470" y="2340" as="targetPoint" />
          </mxGeometry>
        </mxCell>
        <mxCell id="FfF9VyB2_SJo4U8Xi0ep-142" value="Thiết kế logic xác thực &lt;br&gt;đăng nhập người dùng = 3d" style="edgeLabel;html=1;align=center;verticalAlign=middle;resizable=0;points=[];" vertex="1" connectable="0" parent="FfF9VyB2_SJo4U8Xi0ep-86">
          <mxGeometry x="-0.0701" y="-3" relative="1" as="geometry">
            <mxPoint as="offset" />
          </mxGeometry>
        </mxCell>
        <mxCell id="FfF9VyB2_SJo4U8Xi0ep-88" value="" style="endArrow=none;html=1;rounded=0;entryX=0;entryY=0.5;entryDx=0;entryDy=0;entryPerimeter=0;exitX=1;exitY=0.5;exitDx=0;exitDy=0;exitPerimeter=0;" edge="1" parent="1" source="FfF9VyB2_SJo4U8Xi0ep-50" target="FfF9VyB2_SJo4U8Xi0ep-49">
          <mxGeometry width="50" height="50" relative="1" as="geometry">
            <mxPoint x="-700" y="2000" as="sourcePoint" />
            <mxPoint x="-950" y="2011" as="targetPoint" />
          </mxGeometry>
        </mxCell>
        <mxCell id="FfF9VyB2_SJo4U8Xi0ep-144" value="Viết TestCase = 2.5d" style="edgeLabel;html=1;align=center;verticalAlign=middle;resizable=0;points=[];" vertex="1" connectable="0" parent="FfF9VyB2_SJo4U8Xi0ep-88">
          <mxGeometry x="0.0335" y="1" relative="1" as="geometry">
            <mxPoint as="offset" />
          </mxGeometry>
        </mxCell>
        <mxCell id="FfF9VyB2_SJo4U8Xi0ep-89" value="" style="endArrow=none;html=1;rounded=0;exitX=0;exitY=0.5;exitDx=0;exitDy=0;exitPerimeter=0;entryX=1;entryY=0.5;entryDx=0;entryDy=0;entryPerimeter=0;" edge="1" parent="1" source="FfF9VyB2_SJo4U8Xi0ep-47" target="FfF9VyB2_SJo4U8Xi0ep-49">
          <mxGeometry width="50" height="50" relative="1" as="geometry">
            <mxPoint x="-1020" y="2021" as="sourcePoint" />
            <mxPoint x="-940" y="2021" as="targetPoint" />
          </mxGeometry>
        </mxCell>
        <mxCell id="FfF9VyB2_SJo4U8Xi0ep-145" value="Viết UnitTest = 3d" style="edgeLabel;html=1;align=center;verticalAlign=middle;resizable=0;points=[];" vertex="1" connectable="0" parent="FfF9VyB2_SJo4U8Xi0ep-89">
          <mxGeometry x="-0.0752" y="3" relative="1" as="geometry">
            <mxPoint as="offset" />
          </mxGeometry>
        </mxCell>
        <mxCell id="FfF9VyB2_SJo4U8Xi0ep-146" value="&lt;blockquote style=&quot;margin: 0 0 0 40px; border: none; padding: 0px;&quot;&gt;&lt;blockquote style=&quot;margin: 0 0 0 40px; border: none; padding: 0px;&quot;&gt;&lt;span style=&quot;white-space: pre;&quot;&gt;&#x9;&lt;/span&gt;&lt;/blockquote&gt;&lt;/blockquote&gt;" style="verticalLabelPosition=bottom;verticalAlign=top;html=1;shape=mxgraph.flowchart.or;" vertex="1" parent="1">
          <mxGeometry x="-880" y="200" width="80" height="80" as="geometry" />
        </mxCell>
        <mxCell id="FfF9VyB2_SJo4U8Xi0ep-147" value="" style="endArrow=none;html=1;rounded=0;entryX=0.5;entryY=1;entryDx=0;entryDy=0;entryPerimeter=0;exitX=0.5;exitY=0;exitDx=0;exitDy=0;exitPerimeter=0;" edge="1" parent="1" source="FfF9VyB2_SJo4U8Xi0ep-6" target="FfF9VyB2_SJo4U8Xi0ep-146">
          <mxGeometry width="50" height="50" relative="1" as="geometry">
            <mxPoint x="-900" y="400" as="sourcePoint" />
            <mxPoint x="-850" y="350" as="targetPoint" />
          </mxGeometry>
        </mxCell>
        <mxCell id="FfF9VyB2_SJo4U8Xi0ep-152" value="Xây dựng nội dung khảo sát =&amp;nbsp; 4d" style="edgeLabel;html=1;align=center;verticalAlign=middle;resizable=0;points=[];" vertex="1" connectable="0" parent="FfF9VyB2_SJo4U8Xi0ep-147">
          <mxGeometry x="0.0186" y="-2" relative="1" as="geometry">
            <mxPoint as="offset" />
          </mxGeometry>
        </mxCell>
        <mxCell id="FfF9VyB2_SJo4U8Xi0ep-153" value="0" style="text;html=1;strokeColor=none;fillColor=none;align=center;verticalAlign=middle;whiteSpace=wrap;rounded=0;" vertex="1" parent="1">
          <mxGeometry x="-870" y="200" width="60" height="30" as="geometry" />
        </mxCell>
        <mxCell id="FfF9VyB2_SJo4U8Xi0ep-154" value="0" style="text;html=1;strokeColor=none;fillColor=none;align=center;verticalAlign=middle;whiteSpace=wrap;rounded=0;" vertex="1" parent="1">
          <mxGeometry x="-890" y="225" width="60" height="30" as="geometry" />
        </mxCell>
        <mxCell id="FfF9VyB2_SJo4U8Xi0ep-155" value="0" style="text;html=1;strokeColor=none;fillColor=none;align=center;verticalAlign=middle;whiteSpace=wrap;rounded=0;" vertex="1" parent="1">
          <mxGeometry x="-850" y="225" width="60" height="30" as="geometry" />
        </mxCell>
        <mxCell id="FfF9VyB2_SJo4U8Xi0ep-156" value="0" style="text;html=1;strokeColor=none;fillColor=none;align=center;verticalAlign=middle;whiteSpace=wrap;rounded=0;" vertex="1" parent="1">
          <mxGeometry x="-870" y="250" width="60" height="30" as="geometry" />
        </mxCell>
        <mxCell id="FfF9VyB2_SJo4U8Xi0ep-158" value="2" style="text;html=1;strokeColor=none;fillColor=none;align=center;verticalAlign=middle;whiteSpace=wrap;rounded=0;" vertex="1" parent="1">
          <mxGeometry x="-990" y="520" width="60" height="30" as="geometry" />
        </mxCell>
        <mxCell id="FfF9VyB2_SJo4U8Xi0ep-159" value="3" style="text;html=1;strokeColor=none;fillColor=none;align=center;verticalAlign=middle;whiteSpace=wrap;rounded=0;" vertex="1" parent="1">
          <mxGeometry x="-750" y="520" width="60" height="30" as="geometry" />
        </mxCell>
        <mxCell id="FfF9VyB2_SJo4U8Xi0ep-160" value="1" style="text;html=1;strokeColor=none;fillColor=none;align=center;verticalAlign=middle;whiteSpace=wrap;rounded=0;" vertex="1" parent="1">
          <mxGeometry x="-870" y="360" width="60" height="30" as="geometry" />
        </mxCell>
        <mxCell id="FfF9VyB2_SJo4U8Xi0ep-169" value="4" style="text;html=1;strokeColor=none;fillColor=none;align=center;verticalAlign=middle;whiteSpace=wrap;rounded=0;" vertex="1" parent="1">
          <mxGeometry x="-870" y="680" width="60" height="30" as="geometry" />
        </mxCell>
        <mxCell id="FfF9VyB2_SJo4U8Xi0ep-170" value="5" style="text;html=1;strokeColor=none;fillColor=none;align=center;verticalAlign=middle;whiteSpace=wrap;rounded=0;" vertex="1" parent="1">
          <mxGeometry x="-630" y="680" width="60" height="30" as="geometry" />
        </mxCell>
        <mxCell id="FfF9VyB2_SJo4U8Xi0ep-171" value="6" style="text;html=1;strokeColor=none;fillColor=none;align=center;verticalAlign=middle;whiteSpace=wrap;rounded=0;" vertex="1" parent="1">
          <mxGeometry x="-750" y="840" width="60" height="30" as="geometry" />
        </mxCell>
        <mxCell id="FfF9VyB2_SJo4U8Xi0ep-172" value="7" style="text;html=1;strokeColor=none;fillColor=none;align=center;verticalAlign=middle;whiteSpace=wrap;rounded=0;" vertex="1" parent="1">
          <mxGeometry x="-510" y="840" width="60" height="30" as="geometry" />
        </mxCell>
        <mxCell id="FfF9VyB2_SJo4U8Xi0ep-173" value="8" style="text;html=1;strokeColor=none;fillColor=none;align=center;verticalAlign=middle;whiteSpace=wrap;rounded=0;" vertex="1" parent="1">
          <mxGeometry x="-750" y="1000" width="60" height="30" as="geometry" />
        </mxCell>
        <mxCell id="FfF9VyB2_SJo4U8Xi0ep-174" value="9" style="text;html=1;strokeColor=none;fillColor=none;align=center;verticalAlign=middle;whiteSpace=wrap;rounded=0;" vertex="1" parent="1">
          <mxGeometry x="-510" y="1000" width="60" height="30" as="geometry" />
        </mxCell>
        <mxCell id="FfF9VyB2_SJo4U8Xi0ep-175" value="10" style="text;html=1;strokeColor=none;fillColor=none;align=center;verticalAlign=middle;whiteSpace=wrap;rounded=0;" vertex="1" parent="1">
          <mxGeometry x="-750" y="1160" width="60" height="30" as="geometry" />
        </mxCell>
        <mxCell id="FfF9VyB2_SJo4U8Xi0ep-176" value="11" style="text;html=1;strokeColor=none;fillColor=none;align=center;verticalAlign=middle;whiteSpace=wrap;rounded=0;" vertex="1" parent="1">
          <mxGeometry x="-510" y="1160" width="60" height="30" as="geometry" />
        </mxCell>
        <mxCell id="FfF9VyB2_SJo4U8Xi0ep-177" value="12" style="text;html=1;strokeColor=none;fillColor=none;align=center;verticalAlign=middle;whiteSpace=wrap;rounded=0;" vertex="1" parent="1">
          <mxGeometry x="-630" y="1320" width="60" height="30" as="geometry" />
        </mxCell>
        <mxCell id="FfF9VyB2_SJo4U8Xi0ep-178" value="13" style="text;html=1;strokeColor=none;fillColor=none;align=center;verticalAlign=middle;whiteSpace=wrap;rounded=0;" vertex="1" parent="1">
          <mxGeometry x="-910" y="1320" width="60" height="30" as="geometry" />
        </mxCell>
        <mxCell id="FfF9VyB2_SJo4U8Xi0ep-179" value="15" style="text;html=1;strokeColor=none;fillColor=none;align=center;verticalAlign=middle;whiteSpace=wrap;rounded=0;" vertex="1" parent="1">
          <mxGeometry x="-910" y="1480" width="60" height="30" as="geometry" />
        </mxCell>
        <mxCell id="FfF9VyB2_SJo4U8Xi0ep-180" value="16" style="text;html=1;strokeColor=none;fillColor=none;align=center;verticalAlign=middle;whiteSpace=wrap;rounded=0;" vertex="1" parent="1">
          <mxGeometry x="-750" y="1480" width="60" height="30" as="geometry" />
        </mxCell>
        <mxCell id="FfF9VyB2_SJo4U8Xi0ep-181" value="14" style="text;html=1;strokeColor=none;fillColor=none;align=center;verticalAlign=middle;whiteSpace=wrap;rounded=0;" vertex="1" parent="1">
          <mxGeometry x="-1070" y="1480" width="60" height="30" as="geometry" />
        </mxCell>
        <mxCell id="FfF9VyB2_SJo4U8Xi0ep-182" value="20" style="text;html=1;strokeColor=none;fillColor=none;align=center;verticalAlign=middle;whiteSpace=wrap;rounded=0;" vertex="1" parent="1">
          <mxGeometry x="-1110" y="1720" width="60" height="30" as="geometry" />
        </mxCell>
        <mxCell id="FfF9VyB2_SJo4U8Xi0ep-183" value="18" style="text;html=1;strokeColor=none;fillColor=none;align=center;verticalAlign=middle;whiteSpace=wrap;rounded=0;" vertex="1" parent="1">
          <mxGeometry x="-990" y="1725" width="60" height="30" as="geometry" />
        </mxCell>
        <mxCell id="FfF9VyB2_SJo4U8Xi0ep-184" value="19" style="text;html=1;strokeColor=none;fillColor=none;align=center;verticalAlign=middle;whiteSpace=wrap;rounded=0;" vertex="1" parent="1">
          <mxGeometry x="-830" y="1725" width="60" height="30" as="geometry" />
        </mxCell>
        <mxCell id="FfF9VyB2_SJo4U8Xi0ep-185" value="17" style="text;html=1;strokeColor=none;fillColor=none;align=center;verticalAlign=middle;whiteSpace=wrap;rounded=0;" vertex="1" parent="1">
          <mxGeometry x="-670" y="1725" width="60" height="30" as="geometry" />
        </mxCell>
        <mxCell id="FfF9VyB2_SJo4U8Xi0ep-186" value="21" style="text;html=1;strokeColor=none;fillColor=none;align=center;verticalAlign=middle;whiteSpace=wrap;rounded=0;" vertex="1" parent="1">
          <mxGeometry x="-1110" y="1961" width="60" height="30" as="geometry" />
        </mxCell>
        <mxCell id="FfF9VyB2_SJo4U8Xi0ep-187" value="22" style="text;html=1;strokeColor=none;fillColor=none;align=center;verticalAlign=middle;whiteSpace=wrap;rounded=0;" vertex="1" parent="1">
          <mxGeometry x="-870" y="1960" width="60" height="30" as="geometry" />
        </mxCell>
        <mxCell id="FfF9VyB2_SJo4U8Xi0ep-188" value="23" style="text;html=1;strokeColor=none;fillColor=none;align=center;verticalAlign=middle;whiteSpace=wrap;rounded=0;" vertex="1" parent="1">
          <mxGeometry x="-590" y="1961" width="60" height="30" as="geometry" />
        </mxCell>
        <mxCell id="FfF9VyB2_SJo4U8Xi0ep-189" value="24" style="text;html=1;strokeColor=none;fillColor=none;align=center;verticalAlign=middle;whiteSpace=wrap;rounded=0;" vertex="1" parent="1">
          <mxGeometry x="-390" y="1961" width="60" height="30" as="geometry" />
        </mxCell>
        <mxCell id="FfF9VyB2_SJo4U8Xi0ep-190" value="25" style="text;html=1;strokeColor=none;fillColor=none;align=center;verticalAlign=middle;whiteSpace=wrap;rounded=0;" vertex="1" parent="1">
          <mxGeometry x="-190" y="1966.5" width="60" height="19" as="geometry" />
        </mxCell>
        <mxCell id="FfF9VyB2_SJo4U8Xi0ep-202" value="30.75" style="text;html=1;strokeColor=none;fillColor=none;align=center;verticalAlign=middle;whiteSpace=wrap;rounded=0;" vertex="1" parent="1">
          <mxGeometry x="-1090" y="1505" width="60" height="30" as="geometry" />
        </mxCell>
        <mxCell id="FfF9VyB2_SJo4U8Xi0ep-203" value="30.45" style="text;html=1;strokeColor=none;fillColor=none;align=center;verticalAlign=middle;whiteSpace=wrap;rounded=0;" vertex="1" parent="1">
          <mxGeometry x="-932" y="1506" width="60" height="30" as="geometry" />
        </mxCell>
        <mxCell id="FfF9VyB2_SJo4U8Xi0ep-205" value="36.75" style="text;html=1;strokeColor=none;fillColor=none;align=center;verticalAlign=middle;whiteSpace=wrap;rounded=0;" vertex="1" parent="1">
          <mxGeometry x="-1130" y="1745.5" width="60" height="30" as="geometry" />
        </mxCell>
        <mxCell id="FfF9VyB2_SJo4U8Xi0ep-206" value="37.75" style="text;html=1;strokeColor=none;fillColor=none;align=center;verticalAlign=middle;whiteSpace=wrap;rounded=0;" vertex="1" parent="1">
          <mxGeometry x="-1010" y="1745.5" width="60" height="30" as="geometry" />
        </mxCell>
        <mxCell id="FfF9VyB2_SJo4U8Xi0ep-207" value="37.75" style="text;html=1;strokeColor=none;fillColor=none;align=center;verticalAlign=middle;whiteSpace=wrap;rounded=0;" vertex="1" parent="1">
          <mxGeometry x="-850" y="1745.5" width="60" height="30" as="geometry" />
        </mxCell>
        <mxCell id="FfF9VyB2_SJo4U8Xi0ep-208" value="33.75" style="text;html=1;strokeColor=none;fillColor=none;align=center;verticalAlign=middle;whiteSpace=wrap;rounded=0;" vertex="1" parent="1">
          <mxGeometry x="-690" y="1745.5" width="60" height="30" as="geometry" />
        </mxCell>
        <mxCell id="FfF9VyB2_SJo4U8Xi0ep-209" value="39.75" style="text;html=1;strokeColor=none;fillColor=none;align=center;verticalAlign=middle;whiteSpace=wrap;rounded=0;" vertex="1" parent="1">
          <mxGeometry x="-1130" y="1985.5" width="60" height="30" as="geometry" />
        </mxCell>
        <mxCell id="FfF9VyB2_SJo4U8Xi0ep-210" value="42.75" style="text;html=1;strokeColor=none;fillColor=none;align=center;verticalAlign=middle;whiteSpace=wrap;rounded=0;" vertex="1" parent="1">
          <mxGeometry x="-890" y="1986" width="60" height="30" as="geometry" />
        </mxCell>
        <mxCell id="FfF9VyB2_SJo4U8Xi0ep-211" value="45.75" style="text;html=1;strokeColor=none;fillColor=none;align=center;verticalAlign=middle;whiteSpace=wrap;rounded=0;" vertex="1" parent="1">
          <mxGeometry x="-610" y="1986" width="60" height="30" as="geometry" />
        </mxCell>
        <mxCell id="FfF9VyB2_SJo4U8Xi0ep-212" value="48.25" style="text;html=1;strokeColor=none;fillColor=none;align=center;verticalAlign=middle;whiteSpace=wrap;rounded=0;" vertex="1" parent="1">
          <mxGeometry x="-410" y="1988.5" width="60" height="24" as="geometry" />
        </mxCell>
        <mxCell id="FfF9VyB2_SJo4U8Xi0ep-214" value="51.25" style="text;html=1;strokeColor=none;fillColor=none;align=center;verticalAlign=middle;whiteSpace=wrap;rounded=0;" vertex="1" parent="1">
          <mxGeometry x="-210" y="1989" width="60" height="24" as="geometry" />
        </mxCell>
        <mxCell id="JNNiiBovuMpCqWWfZ4Ys-2" value="7.5" style="text;html=1;strokeColor=none;fillColor=none;align=center;verticalAlign=middle;whiteSpace=wrap;rounded=0;" vertex="1" parent="1">
          <mxGeometry x="-1010" y="545" width="60" height="30" as="geometry" />
        </mxCell>
        <mxCell id="JNNiiBovuMpCqWWfZ4Ys-3" value="7.5" style="text;html=1;strokeColor=none;fillColor=none;align=center;verticalAlign=middle;whiteSpace=wrap;rounded=0;" vertex="1" parent="1">
          <mxGeometry x="-770" y="545" width="60" height="30" as="geometry" />
        </mxCell>
        <mxCell id="JNNiiBovuMpCqWWfZ4Ys-4" value="12.5" style="text;html=1;strokeColor=none;fillColor=none;align=center;verticalAlign=middle;whiteSpace=wrap;rounded=0;" vertex="1" parent="1">
          <mxGeometry x="-890" y="705" width="60" height="30" as="geometry" />
        </mxCell>
        <mxCell id="JNNiiBovuMpCqWWfZ4Ys-5" value="14.75" style="text;html=1;strokeColor=none;fillColor=none;align=center;verticalAlign=middle;whiteSpace=wrap;rounded=0;" vertex="1" parent="1">
          <mxGeometry x="-653" y="706" width="60" height="30" as="geometry" />
        </mxCell>
        <mxCell id="JNNiiBovuMpCqWWfZ4Ys-6" value="16.75" style="text;html=1;strokeColor=none;fillColor=none;align=center;verticalAlign=middle;whiteSpace=wrap;rounded=0;" vertex="1" parent="1">
          <mxGeometry x="-772" y="865" width="60" height="30" as="geometry" />
        </mxCell>
        <mxCell id="JNNiiBovuMpCqWWfZ4Ys-7" value="16.75" style="text;html=1;strokeColor=none;fillColor=none;align=center;verticalAlign=middle;whiteSpace=wrap;rounded=0;" vertex="1" parent="1">
          <mxGeometry x="-530" y="865" width="60" height="30" as="geometry" />
        </mxCell>
        <mxCell id="JNNiiBovuMpCqWWfZ4Ys-8" value="18.75" style="text;html=1;strokeColor=none;fillColor=none;align=center;verticalAlign=middle;whiteSpace=wrap;rounded=0;" vertex="1" parent="1">
          <mxGeometry x="-770" y="1025" width="60" height="30" as="geometry" />
        </mxCell>
        <mxCell id="JNNiiBovuMpCqWWfZ4Ys-9" value="18.75" style="text;html=1;strokeColor=none;fillColor=none;align=center;verticalAlign=middle;whiteSpace=wrap;rounded=0;" vertex="1" parent="1">
          <mxGeometry x="-532" y="1025" width="60" height="30" as="geometry" />
        </mxCell>
        <mxCell id="JNNiiBovuMpCqWWfZ4Ys-10" value="21.15" style="text;html=1;strokeColor=none;fillColor=none;align=center;verticalAlign=middle;whiteSpace=wrap;rounded=0;" vertex="1" parent="1">
          <mxGeometry x="-770" y="1185" width="60" height="30" as="geometry" />
        </mxCell>
        <mxCell id="JNNiiBovuMpCqWWfZ4Ys-11" value="21.15" style="text;html=1;strokeColor=none;fillColor=none;align=center;verticalAlign=middle;whiteSpace=wrap;rounded=0;" vertex="1" parent="1">
          <mxGeometry x="-530" y="1185" width="60" height="30" as="geometry" />
        </mxCell>
        <mxCell id="JNNiiBovuMpCqWWfZ4Ys-12" value="24.15" style="text;html=1;strokeColor=none;fillColor=none;align=center;verticalAlign=middle;whiteSpace=wrap;rounded=0;" vertex="1" parent="1">
          <mxGeometry x="-650" y="1345" width="60" height="30" as="geometry" />
        </mxCell>
        <mxCell id="JNNiiBovuMpCqWWfZ4Ys-13" value="28.15" style="text;html=1;strokeColor=none;fillColor=none;align=center;verticalAlign=middle;whiteSpace=wrap;rounded=0;" vertex="1" parent="1">
          <mxGeometry x="-930" y="1345" width="60" height="30" as="geometry" />
        </mxCell>
        <mxCell id="JNNiiBovuMpCqWWfZ4Ys-14" value="30.25" style="text;html=1;strokeColor=none;fillColor=none;align=center;verticalAlign=middle;whiteSpace=wrap;rounded=0;" vertex="1" parent="1">
          <mxGeometry x="-770" y="1505" width="60" height="30" as="geometry" />
        </mxCell>
        <mxCell id="JNNiiBovuMpCqWWfZ4Ys-15" value="4" style="text;html=1;strokeColor=none;fillColor=none;align=center;verticalAlign=middle;whiteSpace=wrap;rounded=0;" vertex="1" parent="1">
          <mxGeometry x="-890" y="385" width="60" height="30" as="geometry" />
        </mxCell>
        <mxCell id="JNNiiBovuMpCqWWfZ4Ys-17" value="51.25" style="text;html=1;strokeColor=none;fillColor=none;align=center;verticalAlign=middle;whiteSpace=wrap;rounded=0;" vertex="1" parent="1">
          <mxGeometry x="-170" y="1989" width="60" height="24" as="geometry" />
        </mxCell>
        <mxCell id="JNNiiBovuMpCqWWfZ4Ys-18" value="48.25" style="text;html=1;strokeColor=none;fillColor=none;align=center;verticalAlign=middle;whiteSpace=wrap;rounded=0;" vertex="1" parent="1">
          <mxGeometry x="-370" y="1988" width="60" height="24" as="geometry" />
        </mxCell>
        <mxCell id="JNNiiBovuMpCqWWfZ4Ys-19" value="0" style="text;html=1;strokeColor=none;fillColor=none;align=center;verticalAlign=middle;whiteSpace=wrap;rounded=0;" vertex="1" parent="1">
          <mxGeometry x="-190" y="2012" width="60" height="24" as="geometry" />
        </mxCell>
        <mxCell id="JNNiiBovuMpCqWWfZ4Ys-20" value="0" style="text;html=1;strokeColor=none;fillColor=none;align=center;verticalAlign=middle;whiteSpace=wrap;rounded=0;" vertex="1" parent="1">
          <mxGeometry x="-390" y="2010" width="60" height="26" as="geometry" />
        </mxCell>
        <mxCell id="JNNiiBovuMpCqWWfZ4Ys-21" value="4" style="text;html=1;strokeColor=none;fillColor=none;align=center;verticalAlign=middle;whiteSpace=wrap;rounded=0;" vertex="1" parent="1">
          <mxGeometry x="-850" y="385" width="60" height="30" as="geometry" />
        </mxCell>
        <mxCell id="JNNiiBovuMpCqWWfZ4Ys-23" value="0" style="text;html=1;strokeColor=none;fillColor=none;align=center;verticalAlign=middle;whiteSpace=wrap;rounded=0;" vertex="1" parent="1">
          <mxGeometry x="-590" y="2011" width="60" height="24" as="geometry" />
        </mxCell>
        <mxCell id="JNNiiBovuMpCqWWfZ4Ys-24" value="42.75" style="text;html=1;strokeColor=none;fillColor=none;align=center;verticalAlign=middle;whiteSpace=wrap;rounded=0;" vertex="1" parent="1">
          <mxGeometry x="-850" y="1985.5" width="60" height="30" as="geometry" />
        </mxCell>
        <mxCell id="JNNiiBovuMpCqWWfZ4Ys-25" value="45.75" style="text;html=1;strokeColor=none;fillColor=none;align=center;verticalAlign=middle;whiteSpace=wrap;rounded=0;" vertex="1" parent="1">
          <mxGeometry x="-570" y="1985.5" width="60" height="30" as="geometry" />
        </mxCell>
        <mxCell id="JNNiiBovuMpCqWWfZ4Ys-26" value="0" style="text;html=1;strokeColor=none;fillColor=none;align=center;verticalAlign=middle;whiteSpace=wrap;rounded=0;" vertex="1" parent="1">
          <mxGeometry x="-870" y="2008" width="60" height="30" as="geometry" />
        </mxCell>
        <mxCell id="JNNiiBovuMpCqWWfZ4Ys-27" value="39.75" style="text;html=1;strokeColor=none;fillColor=none;align=center;verticalAlign=middle;whiteSpace=wrap;rounded=0;" vertex="1" parent="1">
          <mxGeometry x="-1090" y="1986" width="60" height="30" as="geometry" />
        </mxCell>
        <mxCell id="JNNiiBovuMpCqWWfZ4Ys-28" value="0" style="text;html=1;strokeColor=none;fillColor=none;align=center;verticalAlign=middle;whiteSpace=wrap;rounded=0;" vertex="1" parent="1">
          <mxGeometry x="-1110" y="2010" width="60" height="30" as="geometry" />
        </mxCell>
        <mxCell id="JNNiiBovuMpCqWWfZ4Ys-30" value="37.75" style="text;html=1;strokeColor=none;fillColor=none;align=center;verticalAlign=middle;whiteSpace=wrap;rounded=0;" vertex="1" parent="1">
          <mxGeometry x="-650" y="1745.5" width="60" height="30" as="geometry" />
        </mxCell>
        <mxCell id="JNNiiBovuMpCqWWfZ4Ys-31" value="4" style="text;html=1;strokeColor=none;fillColor=none;align=center;verticalAlign=middle;whiteSpace=wrap;rounded=0;" vertex="1" parent="1">
          <mxGeometry x="-670" y="1766.5" width="60" height="34.5" as="geometry" />
        </mxCell>
        <mxCell id="JNNiiBovuMpCqWWfZ4Ys-32" value="37.75" style="text;html=1;strokeColor=none;fillColor=none;align=center;verticalAlign=middle;whiteSpace=wrap;rounded=0;" vertex="1" parent="1">
          <mxGeometry x="-810" y="1745.5" width="60" height="30" as="geometry" />
        </mxCell>
        <mxCell id="JNNiiBovuMpCqWWfZ4Ys-33" value="37.75" style="text;html=1;strokeColor=none;fillColor=none;align=center;verticalAlign=middle;whiteSpace=wrap;rounded=0;" vertex="1" parent="1">
          <mxGeometry x="-970" y="1745.5" width="60" height="30" as="geometry" />
        </mxCell>
        <mxCell id="JNNiiBovuMpCqWWfZ4Ys-34" value="37.75" style="text;html=1;strokeColor=none;fillColor=none;align=center;verticalAlign=middle;whiteSpace=wrap;rounded=0;" vertex="1" parent="1">
          <mxGeometry x="-1090" y="1745.5" width="60" height="30" as="geometry" />
        </mxCell>
        <mxCell id="JNNiiBovuMpCqWWfZ4Ys-35" value="0" style="text;html=1;strokeColor=none;fillColor=none;align=center;verticalAlign=middle;whiteSpace=wrap;rounded=0;" vertex="1" parent="1">
          <mxGeometry x="-990" y="1766.5" width="60" height="30" as="geometry" />
        </mxCell>
        <mxCell id="JNNiiBovuMpCqWWfZ4Ys-36" value="0" style="text;html=1;strokeColor=none;fillColor=none;align=center;verticalAlign=middle;whiteSpace=wrap;rounded=0;" vertex="1" parent="1">
          <mxGeometry x="-830" y="1768.75" width="60" height="30" as="geometry" />
        </mxCell>
        <mxCell id="JNNiiBovuMpCqWWfZ4Ys-37" value="1" style="text;html=1;strokeColor=none;fillColor=none;align=center;verticalAlign=middle;whiteSpace=wrap;rounded=0;" vertex="1" parent="1">
          <mxGeometry x="-1110" y="1771" width="60" height="30" as="geometry" />
        </mxCell>
        <mxCell id="JNNiiBovuMpCqWWfZ4Ys-38" value="30.75" style="text;html=1;strokeColor=none;fillColor=none;align=center;verticalAlign=middle;whiteSpace=wrap;rounded=0;" vertex="1" parent="1">
          <mxGeometry x="-887" y="1508" width="60" height="25" as="geometry" />
        </mxCell>
        <mxCell id="JNNiiBovuMpCqWWfZ4Ys-39" value="30.75" style="text;html=1;strokeColor=none;fillColor=none;align=center;verticalAlign=middle;whiteSpace=wrap;rounded=0;" vertex="1" parent="1">
          <mxGeometry x="-728" y="1508" width="60" height="25" as="geometry" />
        </mxCell>
        <mxCell id="JNNiiBovuMpCqWWfZ4Ys-40" value="30.75" style="text;html=1;strokeColor=none;fillColor=none;align=center;verticalAlign=middle;whiteSpace=wrap;rounded=0;" vertex="1" parent="1">
          <mxGeometry x="-1047" y="1508" width="60" height="25" as="geometry" />
        </mxCell>
        <mxCell id="JNNiiBovuMpCqWWfZ4Ys-41" value="0.5" style="text;html=1;strokeColor=none;fillColor=none;align=center;verticalAlign=middle;whiteSpace=wrap;rounded=0;" vertex="1" parent="1">
          <mxGeometry x="-750" y="1533" width="60" height="25" as="geometry" />
        </mxCell>
        <mxCell id="JNNiiBovuMpCqWWfZ4Ys-42" value="0.3" style="text;html=1;strokeColor=none;fillColor=none;align=center;verticalAlign=middle;whiteSpace=wrap;rounded=0;" vertex="1" parent="1">
          <mxGeometry x="-910" y="1533" width="60" height="25" as="geometry" />
        </mxCell>
        <mxCell id="JNNiiBovuMpCqWWfZ4Ys-43" value="0" style="text;html=1;strokeColor=none;fillColor=none;align=center;verticalAlign=middle;whiteSpace=wrap;rounded=0;" vertex="1" parent="1">
          <mxGeometry x="-1070" y="1533" width="60" height="25" as="geometry" />
        </mxCell>
        <mxCell id="JNNiiBovuMpCqWWfZ4Ys-44" value="28.15" style="text;html=1;strokeColor=none;fillColor=none;align=center;verticalAlign=middle;whiteSpace=wrap;rounded=0;" vertex="1" parent="1">
          <mxGeometry x="-887" y="1345" width="60" height="30" as="geometry" />
        </mxCell>
        <mxCell id="JNNiiBovuMpCqWWfZ4Ys-45" value="0" style="text;html=1;strokeColor=none;fillColor=none;align=center;verticalAlign=middle;whiteSpace=wrap;rounded=0;" vertex="1" parent="1">
          <mxGeometry x="-910" y="1370" width="60" height="30" as="geometry" />
        </mxCell>
        <mxCell id="JNNiiBovuMpCqWWfZ4Ys-47" value="24.15" style="text;html=1;strokeColor=none;fillColor=none;align=center;verticalAlign=middle;whiteSpace=wrap;rounded=0;" vertex="1" parent="1">
          <mxGeometry x="-610" y="1345" width="60" height="30" as="geometry" />
        </mxCell>
        <mxCell id="JNNiiBovuMpCqWWfZ4Ys-48" value="0" style="text;html=1;strokeColor=none;fillColor=none;align=center;verticalAlign=middle;whiteSpace=wrap;rounded=0;" vertex="1" parent="1">
          <mxGeometry x="-630" y="1370" width="60" height="30" as="geometry" />
        </mxCell>
        <mxCell id="JNNiiBovuMpCqWWfZ4Ys-49" value="21.15" style="text;html=1;strokeColor=none;fillColor=none;align=center;verticalAlign=middle;whiteSpace=wrap;rounded=0;" vertex="1" parent="1">
          <mxGeometry x="-485" y="1185" width="60" height="30" as="geometry" />
        </mxCell>
        <mxCell id="JNNiiBovuMpCqWWfZ4Ys-50" value="18.75" style="text;html=1;strokeColor=none;fillColor=none;align=center;verticalAlign=middle;whiteSpace=wrap;rounded=0;" vertex="1" parent="1">
          <mxGeometry x="-730" y="1025" width="60" height="30" as="geometry" />
        </mxCell>
        <mxCell id="JNNiiBovuMpCqWWfZ4Ys-51" value="18.75" style="text;html=1;strokeColor=none;fillColor=none;align=center;verticalAlign=middle;whiteSpace=wrap;rounded=0;" vertex="1" parent="1">
          <mxGeometry x="-485" y="1025" width="60" height="30" as="geometry" />
        </mxCell>
        <mxCell id="JNNiiBovuMpCqWWfZ4Ys-52" value="16.75" style="text;html=1;strokeColor=none;fillColor=none;align=center;verticalAlign=middle;whiteSpace=wrap;rounded=0;" vertex="1" parent="1">
          <mxGeometry x="-728" y="865" width="60" height="30" as="geometry" />
        </mxCell>
        <mxCell id="JNNiiBovuMpCqWWfZ4Ys-53" value="16.75" style="text;html=1;strokeColor=none;fillColor=none;align=center;verticalAlign=middle;whiteSpace=wrap;rounded=0;" vertex="1" parent="1">
          <mxGeometry x="-485" y="865" width="60" height="30" as="geometry" />
        </mxCell>
        <mxCell id="JNNiiBovuMpCqWWfZ4Ys-54" value="14.75" style="text;html=1;strokeColor=none;fillColor=none;align=center;verticalAlign=middle;whiteSpace=wrap;rounded=0;" vertex="1" parent="1">
          <mxGeometry x="-607" y="706" width="60" height="30" as="geometry" />
        </mxCell>
        <mxCell id="JNNiiBovuMpCqWWfZ4Ys-55" value="12.5" style="text;html=1;strokeColor=none;fillColor=none;align=center;verticalAlign=middle;whiteSpace=wrap;rounded=0;" vertex="1" parent="1">
          <mxGeometry x="-850" y="705" width="60" height="30" as="geometry" />
        </mxCell>
        <mxCell id="JNNiiBovuMpCqWWfZ4Ys-56" value="7.5" style="text;html=1;strokeColor=none;fillColor=none;align=center;verticalAlign=middle;whiteSpace=wrap;rounded=0;" vertex="1" parent="1">
          <mxGeometry x="-970" y="545" width="60" height="30" as="geometry" />
        </mxCell>
        <mxCell id="JNNiiBovuMpCqWWfZ4Ys-57" value="7.5" style="text;html=1;strokeColor=none;fillColor=none;align=center;verticalAlign=middle;whiteSpace=wrap;rounded=0;" vertex="1" parent="1">
          <mxGeometry x="-728" y="545" width="60" height="30" as="geometry" />
        </mxCell>
        <mxCell id="JNNiiBovuMpCqWWfZ4Ys-58" value="0" style="text;html=1;strokeColor=none;fillColor=none;align=center;verticalAlign=middle;whiteSpace=wrap;rounded=0;" vertex="1" parent="1">
          <mxGeometry x="-870" y="410" width="60" height="30" as="geometry" />
        </mxCell>
        <mxCell id="JNNiiBovuMpCqWWfZ4Ys-59" value="0" style="text;html=1;strokeColor=none;fillColor=none;align=center;verticalAlign=middle;whiteSpace=wrap;rounded=0;" vertex="1" parent="1">
          <mxGeometry x="-990" y="570" width="60" height="30" as="geometry" />
        </mxCell>
        <mxCell id="JNNiiBovuMpCqWWfZ4Ys-60" value="0" style="text;html=1;strokeColor=none;fillColor=none;align=center;verticalAlign=middle;whiteSpace=wrap;rounded=0;" vertex="1" parent="1">
          <mxGeometry x="-750" y="570" width="60" height="30" as="geometry" />
        </mxCell>
        <mxCell id="JNNiiBovuMpCqWWfZ4Ys-61" value="0" style="text;html=1;strokeColor=none;fillColor=none;align=center;verticalAlign=middle;whiteSpace=wrap;rounded=0;" vertex="1" parent="1">
          <mxGeometry x="-872" y="730" width="60" height="30" as="geometry" />
        </mxCell>
        <mxCell id="JNNiiBovuMpCqWWfZ4Ys-62" value="0" style="text;html=1;strokeColor=none;fillColor=none;align=center;verticalAlign=middle;whiteSpace=wrap;rounded=0;" vertex="1" parent="1">
          <mxGeometry x="-630" y="730" width="60" height="30" as="geometry" />
        </mxCell>
        <mxCell id="JNNiiBovuMpCqWWfZ4Ys-63" value="0" style="text;html=1;strokeColor=none;fillColor=none;align=center;verticalAlign=middle;whiteSpace=wrap;rounded=0;" vertex="1" parent="1">
          <mxGeometry x="-750" y="890" width="60" height="30" as="geometry" />
        </mxCell>
        <mxCell id="JNNiiBovuMpCqWWfZ4Ys-64" value="0" style="text;html=1;strokeColor=none;fillColor=none;align=center;verticalAlign=middle;whiteSpace=wrap;rounded=0;" vertex="1" parent="1">
          <mxGeometry x="-510" y="890" width="60" height="30" as="geometry" />
        </mxCell>
        <mxCell id="JNNiiBovuMpCqWWfZ4Ys-65" value="0" style="text;html=1;strokeColor=none;fillColor=none;align=center;verticalAlign=middle;whiteSpace=wrap;rounded=0;" vertex="1" parent="1">
          <mxGeometry x="-750" y="1050" width="60" height="30" as="geometry" />
        </mxCell>
        <mxCell id="JNNiiBovuMpCqWWfZ4Ys-66" value="0" style="text;html=1;strokeColor=none;fillColor=none;align=center;verticalAlign=middle;whiteSpace=wrap;rounded=0;" vertex="1" parent="1">
          <mxGeometry x="-510" y="1050" width="60" height="30" as="geometry" />
        </mxCell>
        <mxCell id="JNNiiBovuMpCqWWfZ4Ys-67" value="0" style="text;html=1;strokeColor=none;fillColor=none;align=center;verticalAlign=middle;whiteSpace=wrap;rounded=0;" vertex="1" parent="1">
          <mxGeometry x="-750" y="1210" width="60" height="30" as="geometry" />
        </mxCell>
        <mxCell id="JNNiiBovuMpCqWWfZ4Ys-68" value="21.15" style="text;html=1;strokeColor=none;fillColor=none;align=center;verticalAlign=middle;whiteSpace=wrap;rounded=0;" vertex="1" parent="1">
          <mxGeometry x="-728" y="1185" width="60" height="30" as="geometry" />
        </mxCell>
        <mxCell id="JNNiiBovuMpCqWWfZ4Ys-69" value="0" style="text;html=1;strokeColor=none;fillColor=none;align=center;verticalAlign=middle;whiteSpace=wrap;rounded=0;" vertex="1" parent="1">
          <mxGeometry x="-510" y="1210" width="60" height="30" as="geometry" />
        </mxCell>
      </root>
    </mxGraphModel>
  </diagram>
</mxfile>
